<?xml version="1.0" encoding="UTF-8" standalone="no"?>
<!DOCTYPE svg PUBLIC "-//W3C//DTD SVG 1.1//EN" "http://www.w3.org/Graphics/SVG/1.1/DTD/svg11.dtd">
<svg version="1.1" xmlns="http://www.w3.org/2000/svg" xmlns:xlink="http://www.w3.org/1999/xlink" preserveAspectRatio="xMidYMid meet" viewBox="25 208 1180 90" width="100%" height="100%"><defs><path d="M695.15 210.34L700.31 210.85L705.41 211.57L710.44 212.48L715.4 213.58L720.29 214.87L725.1 216.34L729.83 217.98L734.47 219.81L739.02 221.8L743.47 223.96L747.83 226.29L752.08 228.77L756.22 231.41L760.25 234.19L764.17 237.13L767.96 240.2L771.63 243.42L775.17 246.76L778.58 250.24L781.86 253.85L784.99 257.57L787.97 261.42L790.81 265.38L791.12 265.84L792.55 264.93L795.23 263.38L797.97 261.94L800.77 260.61L803.63 259.4L806.53 258.3L809.49 257.32L812.5 256.46L815.56 255.72L818.66 255.12L821.79 254.64L824.97 254.3L828.18 254.09L831.43 254.02L834.68 254.09L837.89 254.3L841.07 254.64L844.2 255.12L847.3 255.72L850.36 256.46L853.36 257.32L856.32 258.3L859.23 259.4L862.09 260.61L864.89 261.94L867.63 263.38L870.31 264.93L872.92 266.59L875.47 268.34L877.95 270.2L880.36 272.16L882.7 274.21L884.96 276.35L887.14 278.58L889.24 280.9L891.25 283.3L893.18 285.79L893.52 286.26L894.23 285.65L896.45 283.87L898.75 282.17L901.12 280.55L903.55 279.03L906.04 277.59L908.59 276.25L911.21 275L913.88 273.84L916.6 272.79L919.37 271.83L922.19 270.98L925.06 270.24L927.98 269.6L930.93 269.07L933.92 268.66L936.95 268.36L940.01 268.18L943.11 268.12L946.2 268.18L949.27 268.36L952.3 268.66L955.29 269.07L958.24 269.6L961.16 270.24L964.02 270.98L966.85 271.83L969.62 272.79L972.34 273.84L974.44 274.75L976.33 271.63L979.01 267.56L981.85 263.61L984.84 259.76L987.97 256.04L991.24 252.43L994.65 248.95L998.19 245.6L1001.86 242.39L1005.66 239.32L1009.57 236.38L1013.6 233.59L1017.75 230.96L1022 228.48L1026.35 226.15L1030.81 223.99L1035.35 222L1039.99 220.17L1044.72 218.52L1049.53 217.05L1054.42 215.77L1059.38 214.67L1064.42 213.76L1069.52 213.04L1074.68 212.53L1079.9 212.21L1085.17 212.11L1090.45 212.21L1095.67 212.53L1100.83 213.04L1105.93 213.76L1110.97 214.67L1115.93 215.77L1120.82 217.05L1125.63 218.52L1130.35 220.17L1134.99 222L1139.54 223.99L1144 226.15L1148.35 228.48L1152.6 230.96L1156.74 233.59L1160.77 236.38L1164.69 239.32L1168.48 242.39L1172.15 245.6L1175.7 248.95L1179.11 252.43L1182.38 256.04L1185.51 259.76L1188.5 263.61L1191.34 267.56L1194.02 271.63L1196.55 275.81L1198.92 280.08L1201.12 284.45L1203.15 288.92L1205.01 293.48L1206.68 298.12L1208.12 302.65L32.49 302.65L34.25 299.36L36.12 296.14L38.12 293.01L40.22 289.96L42.44 286.99L44.77 284.12L47.2 281.34L49.73 278.66L52.35 276.08L55.08 273.6L57.9 271.23L60.8 268.97L63.79 266.82L66.87 264.79L70.02 262.88L73.25 261.08L76.56 259.42L79.94 257.88L83.38 256.48L86.89 255.2L90.46 254.07L94.09 253.08L97.77 252.23L101.51 251.53L105.29 250.98L109.13 250.58L113 250.34L116.92 250.26L120.83 250.34L124.7 250.58L128.54 250.98L132.32 251.53L136.06 252.23L139.74 253.08L143.37 254.07L146.94 255.2L150.45 256.48L153.89 257.88L157.27 259.42L160.58 261.08L163.81 262.88L166.96 264.79L169.29 266.33L169.65 266.11L172.89 264.32L176.19 262.65L179.57 261.12L183.01 259.71L186.52 258.44L190.09 257.31L193.72 256.31L197.4 255.47L201.14 254.77L204.92 254.21L208.76 253.82L212.63 253.58L216.55 253.5L220.46 253.58L224.34 253.82L228.17 254.21L231.95 254.77L235.69 255.47L239.37 256.31L243 257.31L246.57 258.44L250.08 259.71L253.52 261.12L256.9 262.65L260.21 264.32L263.44 266.11L266.59 268.03L269.67 270.06L272.66 272.21L275.56 274.47L278.38 276.84L281.11 279.32L282.71 280.89L284.96 277.73L287.86 273.96L290.91 270.31L294.09 266.78L297.4 263.38L300.84 260.1L304.4 256.95L308.09 253.94L311.89 251.07L315.81 248.34L319.83 245.76L323.96 243.33L328.19 241.05L332.52 238.94L336.93 236.98L341.44 235.2L346.03 233.58L350.71 232.14L355.45 230.88L360.28 229.8L365.16 228.91L370.12 228.21L375.13 227.71L380.2 227.4L385.33 227.3L390.45 227.4L395.52 227.71L400.54 228.21L405.49 228.91L410.38 229.8L415.2 230.88L419.95 232.14L424.62 233.58L429.21 235.2L433.72 236.98L438.14 238.94L442.47 241.05L446.69 243.33L450.82 245.76L454.85 248.34L458.76 251.07L462.57 253.94L466.25 256.95L469.82 260.1L472.69 262.83L475.1 261.95L478.22 260.95L481.39 260.08L484.61 259.33L487.87 258.71L491.17 258.23L494.52 257.88L497.9 257.67L501.32 257.59L504.74 257.67L508.12 257.88L511.47 258.23L514.78 258.71L518.04 259.33L521.26 260.08L524.42 260.95L527.54 261.95L530.6 263.07L533.61 264.31L536.56 265.66L539.45 267.13L542.27 268.71L545.02 270.4L547.71 272.19L550.32 274.08L552.86 276.07L555.32 278.16L557.7 280.34L559.99 282.62L562.2 284.98L564.32 287.43L565.7 289.14L566.68 286.73L568.71 282.27L570.91 277.89L573.27 273.62L575.8 269.44L578.49 265.38L581.33 261.42L584.31 257.57L587.45 253.85L590.72 250.24L594.13 246.76L597.67 243.42L601.34 240.2L605.14 237.13L609.05 234.19L613.08 231.41L617.22 228.77L621.47 226.29L625.83 223.96L630.28 221.8L634.83 219.81L639.47 217.98L644.2 216.34L649.01 214.87L653.9 213.58L658.86 212.48L663.89 211.57L668.99 210.85L674.15 210.34L679.38 210.03L684.65 209.92L689.92 210.03L695.15 210.34Z" id="tch-bubble"></path></defs><g><g><use xlink:href="#tch-bubble" opacity="1" fill="#fff" fill-opacity="1"></use></g></g></svg>