<?xml version="1.0" encoding="UTF-8" ?>
<!DOCTYPE svg PUBLIC "-//W3C//DTD SVG 1.1//EN" "http://www.w3.org/Graphics/SVG/1.1/DTD/svg11.dtd">
<svg width="65pt" height="76pt" viewBox="0 0 65 76" version="1.1" xmlns="http://www.w3.org/2000/svg">
<g id="#ffffffff">
</g>
<g id="#e88103ff">
<path fill="#e88103" opacity="1.00" d=" M 22.06 11.32 C 27.58 11.21 33.11 11.22 38.63 11.29 C 38.69 11.98 38.81 13.35 38.87 14.04 C 37.53 14.13 36.18 14.21 34.84 14.28 C 34.81 16.27 34.79 18.26 34.75 20.25 C 39.58 21.25 44.06 23.43 47.89 26.53 C 49.28 25.07 50.69 23.63 52.11 22.20 C 52.49 22.68 53.26 23.65 53.65 24.13 C 52.42 25.66 51.32 27.30 49.89 28.66 C 52.82 31.92 54.57 35.94 55.95 40.04 C 57.98 46.42 55.91 53.17 52.86 58.84 C 46.95 69.36 33.01 74.68 21.71 70.16 C 11.03 66.47 3.73 55.16 4.32 43.96 C 5.57 32.45 14.63 22.16 26.21 20.24 C 26.21 18.26 26.22 16.28 26.24 14.30 C 24.87 14.22 23.51 14.14 22.14 14.05 C 22.12 13.37 22.08 12.00 22.06 11.32 M 29.15 14.19 C 29.16 16.06 29.17 17.92 29.19 19.78 C 29.85 19.82 31.16 19.88 31.82 19.92 C 31.81 17.98 31.79 16.04 31.76 14.10 C 31.11 14.12 29.80 14.17 29.15 14.19 M 27.25 23.08 C 20.02 23.92 13.48 28.65 10.16 35.08 C 6.31 42.13 6.70 51.20 11.00 57.96 C 17.05 68.47 32.26 72.09 42.40 65.41 C 49.49 61.35 53.83 53.17 53.50 45.05 C 53.40 39.88 51.25 34.94 48.09 30.92 C 43.08 25.01 34.92 21.86 27.25 23.08 Z" />
<path fill="#e88103" opacity="1.00" d=" M 16.91 33.65 C 17.63 33.55 19.06 33.34 19.78 33.23 C 22.51 35.34 24.73 38.02 27.10 40.51 C 29.90 40.25 33.50 39.60 35.23 42.48 C 38.22 46.13 34.55 52.26 29.98 51.52 C 25.77 51.24 23.54 46.19 25.40 42.57 C 22.49 39.67 19.46 36.88 16.91 33.65 M 27.28 46.00 C 27.68 46.62 28.46 47.86 28.86 48.47 C 29.97 48.49 31.08 48.51 32.20 48.52 C 32.53 47.91 33.19 46.70 33.52 46.09 C 33.25 45.35 32.71 43.87 32.44 43.13 C 30.04 42.93 27.89 43.32 27.28 46.00 Z" />
</g>
</svg>
