<?xml version="1.0" encoding="UTF-8" ?>
<!DOCTYPE svg PUBLIC "-//W3C//DTD SVG 1.1//EN" "http://www.w3.org/Graphics/SVG/1.1/DTD/svg11.dtd">
<svg width="1000pt" height="1000pt" viewBox="0 0 1000 1000" version="1.1" xmlns="http://www.w3.org/2000/svg">
<path fill="#f18100" stroke="#f18100" stroke-width="0.09375" opacity="1.00" d=" M 310.44 205.61 C 411.34 166.85 524.21 160.29 628.96 186.88 C 716.82 208.87 798.63 254.27 863.88 317.08 C 868.90 322.09 874.53 326.70 878.06 332.97 C 885.18 345.02 885.14 360.91 877.91 372.91 C 875.19 377.68 871.17 381.47 867.32 385.30 C 845.47 407.14 823.65 429.00 801.79 450.82 C 792.62 460.05 778.73 464.09 766.03 461.40 C 759.71 460.13 753.77 457.24 748.76 453.20 C 723.23 433.39 697.66 413.63 672.12 393.82 C 664.06 387.47 659.19 377.30 659.25 367.04 C 659.26 343.85 659.23 320.67 659.26 297.49 C 584.61 267.33 501.37 258.85 422.19 273.51 C 393.89 278.69 366.14 286.79 339.42 297.45 C 339.41 320.64 339.42 343.83 339.42 367.02 C 339.48 377.52 334.39 387.90 326.02 394.25 C 300.69 413.87 275.34 433.47 250.02 453.10 C 235.13 465.87 210.84 465.03 197.06 450.99 C 173.69 427.67 150.35 404.32 127.02 380.95 C 119.63 373.66 115.22 363.39 115.31 352.98 C 115.15 342.79 119.25 332.66 126.35 325.37 C 178.37 273.07 241.52 231.90 310.44 205.61 Z" />
<path fill="#f18100" stroke="#f18100" stroke-width="0.09375" opacity="1.00" d=" M 404.33 367.00 C 467.66 366.99 530.99 367.01 594.33 367.00 C 595.69 375.39 596.38 383.92 598.66 392.13 C 604.12 412.53 616.21 431.14 632.83 444.19 C 678.84 479.86 724.90 515.45 770.90 551.13 C 801.52 575.25 820.03 613.97 819.34 652.97 C 819.33 688.32 819.34 723.67 819.33 759.02 C 819.30 764.02 819.54 769.07 818.76 774.04 C 816.69 789.41 808.69 803.84 796.87 813.86 C 785.60 823.56 770.85 829.11 755.98 829.17 C 585.00 829.17 414.02 829.16 243.04 829.17 C 228.39 829.19 213.82 823.89 202.56 814.51 C 188.23 802.78 179.36 784.57 179.33 766.01 C 179.34 727.00 179.33 688.00 179.33 648.99 C 179.90 612.19 197.36 576.10 225.78 552.74 C 271.30 517.27 317.03 482.05 362.63 446.68 C 382.20 432.46 396.19 410.86 401.20 387.20 C 402.57 380.52 403.26 373.73 404.33 367.00 M 492.24 477.36 C 467.44 478.60 443.11 486.74 422.34 500.28 C 395.78 517.48 374.86 543.34 363.97 573.08 C 351.46 606.56 352.73 644.82 367.30 677.45 C 381.24 709.22 406.78 735.72 438.01 750.84 C 468.92 766.08 505.54 769.33 538.57 759.41 C 572.16 749.56 601.68 727.02 620.54 697.59 C 638.99 669.17 646.96 634.00 641.73 600.45 C 636.32 564.06 615.95 530.46 587.01 507.90 C 560.38 486.91 526.18 475.47 492.24 477.36 Z" />
<path fill="#f18100" stroke="#f18100" stroke-width="0.09375" opacity="1.00" d=" M 494.22 509.21 C 527.05 507.44 559.84 521.87 581.79 546.14 C 595.07 560.66 604.63 578.64 608.85 597.89 C 613.66 619.57 611.54 642.70 602.89 663.16 C 590.57 692.75 565.28 716.68 534.96 727.14 C 514.82 734.21 492.58 735.10 471.95 729.65 C 442.49 722.00 416.72 701.77 401.76 675.33 C 390.51 655.69 385.47 632.52 387.87 609.99 C 390.88 579.85 407.18 551.61 430.99 533.05 C 448.96 518.90 471.32 510.24 494.22 509.21 Z" />
</svg>
