<?xml version="1.0" encoding="UTF-8" ?>
<!DOCTYPE svg PUBLIC "-//W3C//DTD SVG 1.1//EN" "http://www.w3.org/Graphics/SVG/1.1/DTD/svg11.dtd">
<svg width="288pt" height="185pt" viewBox="0 0 288 185" version="1.1" xmlns="http://www.w3.org/2000/svg">
<g id="#f8971fff">
<path fill="#f8971f" opacity="1.00" d=" M 0.00 0.00 L 288.00 0.00 L 288.00 0.81 C 283.81 0.15 284.86 4.01 285.24 7.24 C 283.19 14.67 277.10 20.31 274.78 27.74 C 273.33 30.23 272.59 33.03 271.85 35.79 C 270.92 39.48 270.47 43.57 271.72 47.26 C 272.65 49.96 272.88 52.99 274.71 55.28 C 276.11 58.16 277.48 61.07 279.04 63.88 C 279.94 66.49 281.11 69.02 282.79 71.24 C 283.07 71.69 283.65 72.59 283.93 73.04 C 284.04 73.71 284.26 75.05 284.37 75.71 C 284.28 78.57 284.25 81.42 284.29 84.28 C 284.28 84.77 284.26 85.77 284.24 86.26 C 282.90 88.20 281.51 90.11 279.92 91.84 C 274.40 95.17 268.45 97.73 262.91 100.97 C 262.64 101.17 262.11 101.57 261.85 101.78 C 258.88 103.01 255.97 104.42 253.80 106.88 C 249.25 110.72 245.67 115.59 242.88 120.83 C 237.99 128.28 239.63 137.85 236.80 145.99 C 235.46 147.35 234.52 149.12 235.18 151.05 C 234.86 151.46 234.23 152.29 233.91 152.70 C 233.45 153.06 232.54 153.79 232.08 154.15 C 229.73 155.95 227.14 157.53 224.29 158.37 C 219.92 158.16 215.56 158.05 211.20 157.96 C 207.24 156.34 203.01 156.13 198.80 156.13 C 193.84 155.98 188.70 155.87 183.97 157.58 C 169.09 161.22 161.51 175.99 148.17 182.17 C 145.11 182.11 142.08 182.10 139.04 181.96 C 136.57 180.76 134.14 179.48 131.72 178.18 C 131.37 177.86 130.67 177.20 130.31 176.88 C 129.61 176.16 128.89 175.45 128.16 174.76 C 127.49 174.06 126.81 173.37 126.13 172.69 C 121.23 167.54 115.71 162.68 109.21 159.66 C 107.65 158.82 105.99 158.17 104.28 157.72 C 102.60 157.05 100.94 156.34 99.22 155.79 C 93.85 154.59 88.11 154.60 82.72 155.67 C 79.76 156.41 76.77 156.99 73.80 157.70 C 70.46 157.87 67.13 158.04 63.78 158.21 C 62.21 157.69 60.62 157.22 59.00 156.87 C 58.78 156.61 58.32 156.07 58.09 155.80 C 56.58 153.98 54.92 152.27 52.96 150.95 C 52.51 150.65 51.61 150.05 51.16 149.75 C 51.11 149.34 50.99 148.51 50.93 148.10 C 49.77 142.46 49.06 136.74 47.97 131.08 C 47.11 122.07 42.40 113.17 35.33 107.56 C 31.47 104.21 27.04 100.67 21.80 100.11 C 20.85 99.44 19.91 98.77 18.97 98.08 C 16.46 96.17 13.64 94.71 10.93 93.11 C 8.67 91.71 6.98 89.63 4.88 88.04 C 4.66 87.77 4.21 87.23 3.98 86.96 C 3.61 86.01 3.24 85.07 2.88 84.13 C 2.93 81.48 3.02 78.83 3.14 76.19 C 4.82 73.77 5.77 70.91 5.89 67.96 C 8.54 66.06 10.33 63.07 10.93 59.87 L 11.15 59.16 C 14.42 55.73 14.75 50.53 16.21 46.23 C 17.20 42.75 17.21 39.26 16.24 35.77 C 14.73 31.44 14.41 26.18 11.08 22.74 L 10.87 21.99 C 11.00 19.94 10.10 17.82 8.13 16.98 C 7.83 16.53 7.22 15.64 6.92 15.19 C 5.93 11.31 4.57 7.53 3.31 3.73 C 3.39 1.53 2.10 0.68 0.00 0.83 L 0.00 0.00 M 222.20 6.11 C 221.76 7.39 220.90 8.59 221.01 9.99 C 223.89 21.13 225.42 32.58 227.17 43.93 C 232.78 47.27 231.61 42.72 232.45 40.30 C 234.03 34.44 234.59 28.16 238.09 23.00 C 242.87 23.24 241.97 30.86 245.23 33.77 C 246.72 36.30 251.03 37.54 252.87 34.78 C 253.77 32.49 251.57 31.16 250.26 29.73 C 246.36 26.29 245.80 20.38 241.99 16.97 C 240.26 15.37 237.99 16.13 236.27 17.27 C 233.21 20.81 231.05 25.20 230.85 29.93 L 230.05 29.93 C 228.80 22.66 229.10 15.04 227.04 7.97 C 226.51 5.61 224.09 5.81 222.20 6.11 M 189.01 20.95 C 189.29 23.88 193.07 23.03 195.08 22.74 C 197.59 23.00 198.00 17.87 196.16 17.29 C 193.58 14.06 187.88 16.96 189.01 20.95 M 206.21 16.15 C 202.93 18.81 206.21 24.28 204.87 27.76 C 202.96 28.90 198.39 27.83 198.99 31.01 C 198.62 34.83 203.64 33.47 205.92 32.92 C 205.71 38.85 205.38 45.52 210.18 49.89 C 216.67 51.78 223.35 45.18 223.00 38.98 C 218.33 38.12 218.14 45.51 213.07 45.10 C 211.69 40.25 210.25 35.29 211.08 30.18 C 213.63 28.14 216.91 27.33 219.73 25.72 C 220.24 24.50 221.72 22.90 219.78 22.19 C 216.56 21.15 213.97 23.86 211.16 24.92 C 210.50 21.99 209.63 19.08 209.88 16.02 C 208.64 15.92 207.42 15.97 206.21 16.15 M 192.24 30.18 C 191.20 31.24 189.53 32.23 190.03 33.99 C 191.56 40.56 191.95 47.39 194.15 53.80 C 196.02 56.57 201.50 54.79 199.93 51.07 C 196.57 45.02 196.23 38.01 195.75 31.26 C 195.16 29.77 193.54 29.82 192.24 30.18 M 178.40 45.72 C 179.41 49.42 178.61 51.58 176.00 52.19 C 172.86 48.21 171.19 43.45 168.83 39.08 C 163.27 37.75 164.46 45.91 163.15 49.06 C 161.89 52.07 163.07 56.17 160.92 58.85 C 157.04 55.39 155.58 49.07 153.74 44.25 C 152.50 41.76 147.13 42.71 147.98 46.00 C 149.09 51.92 152.98 56.89 156.05 61.95 C 157.86 64.19 160.56 67.40 163.83 66.94 C 165.44 64.56 165.89 61.61 166.83 58.93 C 167.70 56.17 165.27 50.67 168.84 50.17 C 172.34 54.24 175.76 62.06 182.33 58.33 C 184.55 53.10 181.81 46.26 183.57 40.65 C 183.08 38.64 187.25 32.58 182.95 32.01 C 176.87 32.35 178.41 41.72 178.40 45.72 M 114.27 57.29 C 109.44 58.93 108.29 64.56 107.84 69.03 C 104.33 67.96 108.00 58.84 103.00 59.98 C 101.68 59.76 99.91 60.50 100.01 62.05 C 99.95 68.10 103.69 73.53 103.50 79.66 C 103.97 81.18 103.92 83.96 106.04 83.99 C 111.47 85.34 109.52 76.77 110.32 74.15 C 112.72 71.34 111.54 63.26 115.81 63.15 C 119.53 66.75 120.09 72.58 124.25 75.83 C 128.54 77.97 131.99 73.74 131.00 69.99 C 129.69 70.25 128.44 70.73 127.13 70.97 C 125.56 68.12 123.57 65.46 122.58 62.32 C 121.65 58.95 117.77 56.06 114.27 57.29 M 64.29 62.35 C 58.49 64.02 53.27 67.45 47.24 68.29 C 46.54 69.72 45.56 71.25 46.16 72.91 C 48.92 82.36 49.53 92.28 52.26 101.75 C 53.94 102.71 56.58 103.97 57.88 101.78 C 58.91 96.95 54.59 93.11 56.12 88.25 C 60.38 86.20 64.83 84.43 68.80 81.82 C 70.25 81.12 70.06 79.51 69.91 78.17 C 64.29 75.60 59.82 82.63 54.22 82.98 C 53.19 79.49 52.38 75.89 53.10 72.20 C 57.76 69.48 63.40 68.80 67.89 65.84 C 68.89 62.75 67.43 60.88 64.29 62.35 M 89.07 67.03 L 88.05 67.00 C 87.85 70.43 88.09 73.86 88.30 77.28 C 87.31 80.93 85.63 85.12 82.13 86.97 C 77.66 81.61 81.72 74.01 78.82 68.10 C 76.73 67.55 73.32 68.04 74.01 70.98 C 75.55 77.68 73.67 85.95 78.96 91.09 C 85.82 94.91 90.05 86.34 91.27 80.98 C 92.75 82.78 93.26 85.29 95.19 86.80 C 96.81 89.59 101.46 87.07 100.76 84.37 C 96.97 82.91 95.53 78.70 94.98 75.02 C 92.90 72.42 96.06 65.75 91.96 65.01 C 90.66 64.70 88.91 65.52 89.07 67.03 M 212.01 84.00 C 212.73 88.43 215.72 93.49 212.66 97.69 C 210.39 99.62 208.79 103.91 205.19 102.91 C 202.78 98.05 204.56 92.39 203.85 87.22 C 202.97 85.14 199.20 86.40 199.03 88.06 L 198.06 88.00 C 198.76 90.42 195.73 96.91 198.97 97.00 C 198.94 101.46 199.89 107.78 205.05 108.98 C 210.39 109.09 212.07 103.33 215.85 101.09 C 218.82 105.41 216.87 111.84 215.74 116.74 C 212.41 118.90 207.99 118.33 204.69 116.36 C 203.56 115.42 201.94 116.76 202.03 118.00 C 205.63 126.69 223.19 123.43 222.00 113.02 L 222.96 112.97 C 222.25 110.55 225.24 104.08 222.03 103.99 C 221.61 96.89 218.86 90.10 217.96 83.05 C 217.65 79.63 211.01 80.37 212.01 84.00 M 156.99 86.00 L 156.05 86.03 C 156.47 88.43 154.77 93.11 157.00 94.02 C 157.99 103.81 159.21 113.83 162.95 123.01 C 164.55 126.73 170.46 123.89 168.64 120.31 C 163.49 109.41 162.28 97.14 161.79 85.23 C 160.82 83.42 155.87 82.97 156.99 86.00 M 181.30 91.29 C 173.24 96.26 170.11 107.93 173.29 116.74 C 175.16 119.64 179.30 120.36 181.99 118.02 C 185.69 116.46 186.04 111.92 188.06 108.93 C 190.20 110.61 190.36 115.43 194.00 115.03 C 196.74 115.65 197.71 112.40 196.73 110.37 C 190.07 107.14 191.49 98.24 189.80 92.19 C 186.99 91.72 184.16 91.17 181.30 91.29 M 127.98 115.98 L 127.04 116.03 C 127.46 118.44 125.78 123.09 128.00 124.03 C 128.78 127.21 130.26 131.14 133.65 132.41 C 142.62 135.76 151.26 128.70 154.99 121.00 C 155.07 118.98 151.71 118.15 150.78 119.76 C 148.03 124.47 143.05 128.74 137.23 127.86 C 134.17 125.22 132.98 120.98 134.00 117.00 C 134.29 109.24 137.15 100.26 144.88 97.02 C 146.61 99.27 146.04 102.39 147.15 104.94 C 150.53 105.86 153.79 101.53 151.58 98.33 C 151.45 94.70 148.35 92.55 145.00 92.17 C 134.48 94.34 129.02 106.34 127.98 115.98 Z" />
</g>
<g id="#302026ff">
</g>
<g id="#734f3aff">
</g>
<g id="#3a2c30ff">
</g>
<g id="#a1641fff">
<path fill="#a1641f" opacity="1.00" d=" M 3.31 3.73 C 4.57 7.53 5.93 11.31 6.92 15.19 C 3.79 12.35 2.60 7.82 3.31 3.73 Z" />
</g>
<g id="#fcf6ecff">
<path fill="#fcf6ec" opacity="1.00" d=" M 222.20 6.11 C 224.09 5.81 226.51 5.61 227.04 7.97 C 229.10 15.04 228.80 22.66 230.05 29.93 L 230.85 29.93 C 231.05 25.20 233.21 20.81 236.27 17.27 C 237.99 16.13 240.26 15.37 241.99 16.97 C 245.80 20.38 246.36 26.29 250.26 29.73 C 251.57 31.16 253.77 32.49 252.87 34.78 C 251.03 37.54 246.72 36.30 245.23 33.77 C 241.97 30.86 242.87 23.24 238.09 23.00 C 234.59 28.16 234.03 34.44 232.45 40.30 C 231.61 42.72 232.78 47.27 227.17 43.93 C 225.42 32.58 223.89 21.13 221.01 9.99 C 220.90 8.59 221.76 7.39 222.20 6.11 Z" />
<path fill="#fcf6ec" opacity="1.00" d=" M 192.24 30.18 C 193.54 29.82 195.16 29.77 195.75 31.26 C 196.23 38.01 196.57 45.02 199.93 51.07 C 201.50 54.79 196.02 56.57 194.15 53.80 C 191.95 47.39 191.56 40.56 190.03 33.99 C 189.53 32.23 191.20 31.24 192.24 30.18 Z" />
</g>
<g id="#fcf6e7ff">
<path fill="#fcf6e7" opacity="1.00" d=" M 189.01 20.95 C 187.88 16.96 193.58 14.06 196.16 17.29 C 195.90 19.13 195.48 20.93 195.08 22.74 C 193.07 23.03 189.29 23.88 189.01 20.95 Z" />
</g>
<g id="#fcf7edff">
<path fill="#fcf7ed" opacity="1.00" d=" M 206.21 16.15 C 207.42 15.97 208.64 15.92 209.88 16.02 C 209.63 19.08 210.50 21.99 211.16 24.92 C 213.97 23.86 216.56 21.15 219.78 22.19 C 221.72 22.90 220.24 24.50 219.73 25.72 C 216.91 27.33 213.63 28.14 211.08 30.18 C 210.25 35.29 211.69 40.25 213.07 45.10 C 218.14 45.51 218.33 38.12 223.00 38.98 C 223.35 45.18 216.67 51.78 210.18 49.89 C 205.38 45.52 205.71 38.85 205.92 32.92 C 203.64 33.47 198.62 34.83 198.99 31.01 C 198.39 27.83 202.96 28.90 204.87 27.76 C 206.21 24.28 202.93 18.81 206.21 16.15 Z" />
<path fill="#fcf7ed" opacity="1.00" d=" M 178.40 45.72 C 178.41 41.72 176.87 32.35 182.95 32.01 C 187.25 32.58 183.08 38.64 183.57 40.65 C 181.81 46.26 184.55 53.10 182.33 58.33 C 175.76 62.06 172.34 54.24 168.84 50.17 C 165.27 50.67 167.70 56.17 166.83 58.93 C 165.89 61.61 165.44 64.56 163.83 66.94 C 160.56 67.40 157.86 64.19 156.05 61.95 C 152.98 56.89 149.09 51.92 147.98 46.00 C 147.13 42.71 152.50 41.76 153.74 44.25 C 155.58 49.07 157.04 55.39 160.92 58.85 C 163.07 56.17 161.89 52.07 163.15 49.06 C 164.46 45.91 163.27 37.75 168.83 39.08 C 171.19 43.45 172.86 48.21 176.00 52.19 C 180.06 55.69 179.45 48.71 178.40 45.72 Z" />
</g>
<g id="#a06424ff">
<path fill="#a06424" opacity="1.00" d=" M 8.13 16.98 C 10.10 17.82 11.00 19.94 10.87 21.99 C 8.87 21.19 7.98 19.03 8.13 16.98 Z" />
</g>
<g id="#ebae55ff">
<path fill="#ebae55" opacity="1.00" d=" M 196.16 17.29 C 198.00 17.87 197.59 23.00 195.08 22.74 C 195.48 20.93 195.90 19.13 196.16 17.29 Z" />
</g>
<g id="#915a21ff">
<path fill="#915a21" opacity="1.00" d=" M 11.08 22.74 C 14.41 26.18 14.73 31.44 16.24 35.77 C 16.17 39.25 16.03 42.75 16.21 46.23 C 14.75 50.53 14.42 55.73 11.15 59.16 C 12.42 52.76 15.77 46.71 15.01 40.02 C 15.28 33.93 12.39 28.51 11.08 22.74 Z" />
</g>
<g id="#925b20ff">
</g>
<g id="#d68223ff">
<path fill="#d68223" opacity="1.00" d=" M 16.24 35.77 C 17.21 39.26 17.20 42.75 16.21 46.23 C 16.03 42.75 16.17 39.25 16.24 35.77 Z" />
</g>
<g id="#d48422ff">
<path fill="#d48422" opacity="1.00" d=" M 271.72 47.26 C 270.47 43.57 270.92 39.48 271.85 35.79 C 272.02 39.61 271.86 43.43 271.72 47.26 Z" />
</g>
<g id="#f7deb8ff">
<path fill="#f7deb8" opacity="1.00" d=" M 178.40 45.72 C 179.45 48.71 180.06 55.69 176.00 52.19 C 178.61 51.58 179.41 49.42 178.40 45.72 Z" />
</g>
<g id="#fbf6ebff">
<path fill="#fbf6eb" opacity="1.00" d=" M 114.27 57.29 C 117.77 56.06 121.65 58.95 122.58 62.32 C 123.57 65.46 125.56 68.12 127.13 70.97 C 128.44 70.73 129.69 70.25 131.00 69.99 C 131.99 73.74 128.54 77.97 124.25 75.83 C 120.09 72.58 119.53 66.75 115.81 63.15 C 111.54 63.26 112.72 71.34 110.32 74.15 C 109.52 76.77 111.47 85.34 106.04 83.99 C 103.92 83.96 103.97 81.18 103.50 79.66 C 103.69 73.53 99.95 68.10 100.01 62.05 C 99.91 60.50 101.68 59.76 103.00 59.98 C 108.00 58.84 104.33 67.96 107.84 69.03 C 108.29 64.56 109.44 58.93 114.27 57.29 Z" />
<path fill="#fbf6eb" opacity="1.00" d=" M 64.29 62.35 C 67.43 60.88 68.89 62.75 67.89 65.84 C 63.40 68.80 57.76 69.48 53.10 72.20 C 52.38 75.89 53.19 79.49 54.22 82.98 C 59.82 82.63 64.29 75.60 69.91 78.17 C 70.06 79.51 70.25 81.12 68.80 81.82 C 64.83 84.43 60.38 86.20 56.12 88.25 C 54.59 93.11 58.91 96.95 57.88 101.78 C 56.58 103.97 53.94 102.71 52.26 101.75 C 49.53 92.28 48.92 82.36 46.16 72.91 C 45.56 71.25 46.54 69.72 47.24 68.29 C 53.27 67.45 58.49 64.02 64.29 62.35 Z" />
</g>
<g id="#975c21ff">
<path fill="#975c21" opacity="1.00" d=" M 5.89 67.96 C 6.80 64.86 8.63 62.12 10.93 59.87 C 10.33 63.07 8.54 66.06 5.89 67.96 Z" />
</g>
<g id="#a06622ff">
</g>
<g id="#fbf7eeff">
<path fill="#fbf7ee" opacity="1.00" d=" M 89.07 67.03 C 88.91 65.52 90.66 64.70 91.96 65.01 C 96.06 65.75 92.90 72.42 94.98 75.02 C 95.53 78.70 96.97 82.91 100.76 84.37 C 101.46 87.07 96.81 89.59 95.19 86.80 C 93.26 85.29 92.75 82.78 91.27 80.98 C 90.05 86.34 85.82 94.91 78.96 91.09 C 73.67 85.95 75.55 77.68 74.01 70.98 C 73.32 68.04 76.73 67.55 78.82 68.10 C 81.72 74.01 77.66 81.61 82.13 86.97 C 85.63 85.12 87.31 80.93 88.30 77.28 C 88.93 73.90 89.00 70.46 89.07 67.03 Z" />
</g>
<g id="#fbb664ff">
<path fill="#fbb664" opacity="1.00" d=" M 88.05 67.00 L 89.07 67.03 C 89.00 70.46 88.93 73.90 88.30 77.28 C 88.09 73.86 87.85 70.43 88.05 67.00 Z" />
</g>
<g id="#a16320ff">
<path fill="#a16320" opacity="1.00" d=" M 2.88 73.89 C 3.73 71.84 4.66 69.82 5.89 67.96 C 5.77 70.91 4.82 73.77 3.14 76.19 C 3.07 75.62 2.95 74.47 2.88 73.89 Z" />
</g>
<g id="#6d4323ff">
</g>
<g id="#644527ff">
<path fill="#644527" opacity="1.00" d=" M 2.88 84.13 C 1.69 80.70 1.69 77.29 2.88 73.89 C 2.95 74.47 3.07 75.62 3.14 76.19 C 3.02 78.83 2.93 81.48 2.88 84.13 Z" />
</g>
<g id="#c37f1eff">
</g>
<g id="#342831ff">
</g>
<g id="#fbf7ecff">
<path fill="#fbf7ec" opacity="1.00" d=" M 212.01 84.00 C 211.01 80.37 217.65 79.63 217.96 83.05 C 218.86 90.10 221.61 96.89 222.03 103.99 C 221.99 106.99 222.01 110.01 222.00 113.02 C 223.19 123.43 205.63 126.69 202.03 118.00 C 201.94 116.76 203.56 115.42 204.69 116.36 C 207.99 118.33 212.41 118.90 215.74 116.74 C 216.87 111.84 218.82 105.41 215.85 101.09 C 212.07 103.33 210.39 109.09 205.05 108.98 C 199.89 107.78 198.94 101.46 198.97 97.00 C 198.98 94.01 198.99 91.04 199.03 88.06 C 199.20 86.40 202.97 85.14 203.85 87.22 C 204.56 92.39 202.78 98.05 205.19 102.91 C 208.79 103.91 210.39 99.62 212.66 97.69 C 215.72 93.49 212.73 88.43 212.01 84.00 Z" />
</g>
<g id="#fcf8eeff">
<path fill="#fcf8ee" opacity="1.00" d=" M 156.99 86.00 C 155.87 82.97 160.82 83.42 161.79 85.23 C 162.28 97.14 163.49 109.41 168.64 120.31 C 170.46 123.89 164.55 126.73 162.95 123.01 C 159.21 113.83 157.99 103.81 157.00 94.02 C 157.00 91.34 156.99 88.67 156.99 86.00 Z" />
</g>
<g id="#fdc888ff">
<path fill="#fdc888" opacity="1.00" d=" M 156.05 86.03 L 156.99 86.00 C 156.99 88.67 157.00 91.34 157.00 94.02 C 154.77 93.11 156.47 88.43 156.05 86.03 Z" />
</g>
<g id="#e5ccbdff">
</g>
<g id="#dba874ff">
</g>
<g id="#fdbb71ff">
<path fill="#fdbb71" opacity="1.00" d=" M 198.06 88.00 L 199.03 88.06 C 198.99 91.04 198.98 94.01 198.97 97.00 C 195.73 96.91 198.76 90.42 198.06 88.00 Z" />
</g>
<g id="#fcf6ebff">
<path fill="#fcf6eb" opacity="1.00" d=" M 181.30 91.29 C 184.16 91.17 186.99 91.72 189.80 92.19 C 191.49 98.24 190.07 107.14 196.73 110.37 C 197.71 112.40 196.74 115.65 194.00 115.03 C 190.36 115.43 190.20 110.61 188.06 108.93 C 186.04 111.92 185.69 116.46 181.99 118.02 C 179.30 120.36 175.16 119.64 173.29 116.74 C 170.11 107.93 173.24 96.26 181.30 91.29 M 182.21 96.14 C 180.59 97.46 179.84 99.34 179.35 101.30 C 178.12 105.30 175.41 111.35 179.95 114.06 C 183.37 109.06 187.67 102.35 184.82 96.08 C 184.16 96.10 182.86 96.13 182.21 96.14 Z" />
</g>
<g id="#fcf5eaff">
<path fill="#fcf5ea" opacity="1.00" d=" M 127.98 115.98 C 129.02 106.34 134.48 94.34 145.00 92.17 C 148.35 92.55 151.45 94.70 151.58 98.33 C 153.79 101.53 150.53 105.86 147.15 104.94 C 146.04 102.39 146.61 99.27 144.88 97.02 C 137.15 100.26 134.29 109.24 134.00 117.00 C 132.98 120.98 134.17 125.22 137.23 127.86 C 143.05 128.74 148.03 124.47 150.78 119.76 C 151.71 118.15 155.07 118.98 154.99 121.00 C 151.26 128.70 142.62 135.76 133.65 132.41 C 130.26 131.14 128.78 127.21 128.00 124.03 C 127.99 121.34 127.98 118.66 127.98 115.98 Z" />
</g>
<g id="#965e20ff">
</g>
<g id="#d19757ff">
</g>
<g id="#dfc3b1ff">
</g>
<g id="#b99783ff">
</g>
<g id="#f69d2dff">
<path fill="#f69d2d" opacity="1.00" d=" M 182.21 96.14 C 182.86 96.13 184.16 96.10 184.82 96.08 C 187.67 102.35 183.37 109.06 179.95 114.06 C 175.41 111.35 178.12 105.30 179.35 101.30 C 179.84 99.34 180.59 97.46 182.21 96.14 Z" />
</g>
<g id="#d7b49dff">
</g>
<g id="#b88250ff">
<path fill="#b88250" opacity="1.00" d=" M 21.80 100.11 C 27.04 100.67 31.47 104.21 35.33 107.56 C 35.79 109.04 36.32 110.49 36.95 111.90 C 36.51 111.92 35.63 111.96 35.18 111.98 C 32.35 106.51 26.37 103.88 21.80 100.11 Z" />
</g>
<g id="#895a1eff">
</g>
<g id="#dcbda6ff">
</g>
<g id="#fcac53ff">
<path fill="#fcac53" opacity="1.00" d=" M 222.03 103.99 C 225.24 104.08 222.25 110.55 222.96 112.97 L 222.00 113.02 C 222.01 110.01 221.99 106.99 222.03 103.99 Z" />
</g>
<g id="#3e2a22ff">
</g>
<g id="#bc7633ff">
<path fill="#bc7633" opacity="1.00" d=" M 35.33 107.56 C 42.40 113.17 47.11 122.07 47.97 131.08 L 47.03 131.02 C 46.76 130.55 46.22 129.60 45.95 129.13 C 44.97 122.67 41.51 116.47 36.95 111.90 C 36.32 110.49 35.79 109.04 35.33 107.56 Z" />
</g>
<g id="#c99e86ff">
</g>
<g id="#d1a58bff">
</g>
<g id="#c29072ff">
</g>
<g id="#ae7754ff">
</g>
<g id="#f4b252ff">
<path fill="#f4b252" opacity="1.00" d=" M 127.04 116.03 L 127.98 115.98 C 127.98 118.66 127.99 121.34 128.00 124.03 C 125.78 123.09 127.46 118.44 127.04 116.03 Z" />
</g>
<g id="#cea992ff">
</g>
<g id="#935c1fff">
<path fill="#935c1f" opacity="1.00" d=" M 236.80 145.99 C 239.63 137.85 237.99 128.28 242.88 120.83 C 242.67 122.90 242.27 124.95 241.89 127.00 C 240.70 130.58 240.16 134.28 239.88 138.03 C 239.36 140.79 238.97 143.59 238.34 146.33 C 238.03 147.27 237.68 148.19 237.29 149.09 C 237.17 148.31 236.92 146.77 236.80 145.99 Z" />
</g>
<g id="#3e2921ff">
</g>
<g id="#de964eff">
<path fill="#de964e" opacity="1.00" d=" M 47.03 131.02 L 47.97 131.08 C 49.06 136.74 49.77 142.46 50.93 148.10 C 50.46 147.79 49.53 147.16 49.06 146.85 C 48.57 142.27 47.12 137.84 46.77 133.24 C 46.84 132.68 46.96 131.57 47.03 131.02 Z" />
</g>
<g id="#d3ab93ff">
</g>
<g id="#472e1fff">
</g>
<g id="#debba4ff">
</g>
<g id="#271d22ff">
</g>
<g id="#985f19ff">
<path fill="#985f19" opacity="1.00" d=" M 235.18 151.05 C 234.52 149.12 235.46 147.35 236.80 145.99 C 236.92 146.77 237.17 148.31 237.29 149.09 C 236.85 149.98 236.14 150.63 235.18 151.05 Z" />
</g>
<g id="#cda07fff">
</g>
<g id="#c7916aff">
</g>
<g id="#d58c35ff">
<path fill="#d58c35" opacity="1.00" d=" M 52.96 150.95 C 54.92 152.27 56.58 153.98 58.09 155.80 C 57.54 155.87 56.44 156.01 55.89 156.07 C 54.83 154.41 53.58 152.84 52.96 150.95 Z" />
</g>
<g id="#181011ff">
</g>
<g id="#a67747ff">
</g>
<g id="#e58b21ff">
<path fill="#e58b21" opacity="1.00" d=" M 82.72 155.67 C 88.11 154.60 93.85 154.59 99.22 155.79 C 98.36 155.89 96.62 156.08 95.76 156.18 C 92.92 156.13 90.09 156.06 87.26 156.21 C 85.75 156.04 84.23 155.86 82.72 155.67 Z" />
</g>
<g id="#b57852ff">
</g>
<g id="#c87c2cff">
<path fill="#c87c2c" opacity="1.00" d=" M 73.80 157.70 C 76.77 156.99 79.76 156.41 82.72 155.67 C 84.23 155.86 85.75 156.04 87.26 156.21 C 86.12 156.60 84.96 156.95 83.80 157.26 C 81.85 157.59 79.90 157.92 77.93 158.11 C 77.17 158.04 75.65 157.89 74.89 157.82 L 73.80 157.70 Z" />
</g>
<g id="#9d6237ff">
</g>
<g id="#c17a2dff">
</g>
<g id="#aa7344ff">
</g>
<g id="#c98334ff">
<path fill="#c98334" opacity="1.00" d=" M 198.80 156.13 C 203.01 156.13 207.24 156.34 211.20 157.96 C 207.01 157.72 202.88 157.11 198.80 156.13 Z" />
</g>
<g id="#a86941ff">
</g>
<g id="#a46d47ff">
</g>
<g id="#be7426ff">
<path fill="#be7426" opacity="1.00" d=" M 63.78 158.21 C 67.13 158.04 70.46 157.87 73.80 157.70 L 74.89 157.82 L 75.22 158.75 C 73.43 158.86 71.64 158.94 69.86 159.03 C 69.08 159.07 67.52 159.15 66.75 159.18 C 65.75 158.88 64.76 158.55 63.78 158.21 Z" />
</g>
<g id="#94532cff">
</g>
<g id="#9c6434ff">
</g>
<g id="#ae8056ff">
</g>
<g id="#ce8932ff">
<path fill="#ce8932" opacity="1.00" d=" M 211.20 157.96 C 215.56 158.05 219.92 158.16 224.29 158.37 C 219.94 159.78 215.20 158.66 210.74 159.14 L 211.20 157.96 Z" />
</g>
<g id="#97552fff">
</g>
<g id="#84411fff">
</g>
<g id="#af6938ff">
</g>
<g id="#c0845eff">
</g>
<g id="#bf7851ff">
</g>
<g id="#ce875fff">
</g>
<g id="#c48f62ff">
</g>
<g id="#b18363ff">
</g>
<g id="#d59764ff">
</g>
<g id="#d79d6cff">
</g>
<g id="#ba774cff">
</g>
<g id="#be7e4eff">
</g>
<g id="#d0915eff">
</g>
<g id="#cd8754ff">
</g>
<g id="#a85f3bff">
</g>
<g id="#c0764eff">
</g>
<g id="#9f542cff">
</g>
<g id="#b46d4dff">
</g>
<g id="#964d25ff">
</g>
<g id="#d2af92ff">
</g>
<g id="#ca7d56ff">
</g>
<g id="#7b3410ff">
</g>
<g id="#d2a583ff">
</g>
<g id="#ad6240ff">
</g>
<g id="#c89978ff">
</g>
<g id="#a86036ff">
</g>
<g id="#ba7028ff">
<path fill="#ba7028" opacity="1.00" d=" M 139.04 181.96 C 142.08 182.10 145.11 182.11 148.17 182.17 C 145.47 183.85 141.77 182.86 139.04 181.96 Z" />
</g>
<g id="#b97144ff">
</g>
</svg>
