<?xml version="1.0" encoding="UTF-8" ?>
<!DOCTYPE svg PUBLIC "-//W3C//DTD SVG 1.1//EN" "http://www.w3.org/Graphics/SVG/1.1/DTD/svg11.dtd">
<svg width="395pt" height="156pt" viewBox="0 0 395 156" version="1.1" xmlns="http://www.w3.org/2000/svg">
<g id="#eef3faff">
</g>
<g id="#643415ff">
<path fill="#643415" opacity="1.00" d=" M 232.37 22.32 C 237.18 17.86 239.77 11.27 245.61 7.84 C 244.74 16.76 235.19 20.79 232.26 28.79 C 238.55 27.72 242.13 21.91 247.40 18.94 C 246.95 21.93 244.14 23.30 242.28 25.33 C 241.53 25.99 241.44 27.11 242.01 27.91 C 245.03 27.65 247.62 25.90 250.44 24.94 C 246.88 37.38 229.26 40.80 219.71 33.37 C 215.28 27.14 217.22 18.97 215.70 11.88 C 219.37 14.43 220.11 19.03 222.32 22.61 C 224.65 26.03 229.75 24.68 232.37 22.32 Z" />
<path fill="#643415" opacity="1.00" d=" M 199.07 43.02 C 204.63 38.51 210.16 33.51 217.00 31.06 C 214.21 42.68 200.98 48.39 198.60 60.37 C 205.46 57.42 209.12 49.54 216.73 47.92 C 214.77 56.09 206.85 60.37 202.92 67.35 C 209.89 67.12 211.27 58.74 217.00 56.18 C 217.04 60.92 213.45 64.33 210.80 67.85 C 208.52 70.77 205.26 72.87 203.28 76.00 C 202.26 86.82 205.53 97.83 202.52 108.49 C 195.09 109.96 187.61 111.45 180.01 111.54 C 166.68 111.81 153.37 110.64 140.05 110.42 C 151.73 105.64 164.69 106.36 177.01 107.30 C 184.66 107.60 192.60 107.98 199.85 105.04 C 200.92 94.49 199.34 83.94 198.80 73.41 C 194.96 75.25 191.36 78.05 187.02 78.50 C 184.25 78.86 180.46 76.02 181.89 73.04 C 183.50 69.64 186.56 67.16 187.90 63.59 C 185.01 64.10 182.27 65.17 179.64 66.43 C 183.50 56.77 191.74 50.01 199.07 43.02 Z" />
<path fill="#643415" opacity="1.00" d=" M 244.92 35.54 C 248.94 33.65 253.12 36.09 256.37 38.40 C 266.07 45.96 270.08 58.58 279.77 66.17 C 282.50 68.42 285.80 69.71 289.03 71.04 C 283.40 72.81 278.43 69.00 273.09 67.98 C 275.20 70.57 278.03 72.38 280.44 74.66 C 281.75 76.70 279.79 78.47 278.37 79.70 C 274.52 79.55 271.60 73.64 267.96 76.89 C 271.60 80.29 276.86 81.96 279.26 86.59 C 273.44 85.55 267.98 83.20 262.72 80.57 C 260.12 87.60 259.96 95.40 261.66 102.66 C 262.16 104.24 262.51 106.15 264.06 107.10 C 280.14 108.78 296.60 105.79 312.46 109.76 C 304.98 112.70 296.85 111.22 289.04 111.41 C 279.29 111.27 269.46 112.91 259.79 111.12 C 257.13 110.76 255.94 108.01 255.23 105.76 C 252.91 95.36 257.97 84.28 253.64 74.20 C 249.26 66.57 238.64 63.41 237.43 53.78 C 242.59 57.29 246.73 62.11 252.16 65.24 C 250.60 60.95 246.30 58.83 243.54 55.46 C 242.05 53.71 241.80 51.33 241.23 49.19 C 248.35 51.47 254.34 56.13 260.20 60.62 C 259.39 54.04 251.85 52.10 249.09 46.64 C 251.23 46.57 253.37 46.61 255.51 46.67 C 253.17 41.90 248.15 39.56 244.92 35.54 Z" />
<path fill="#643415" opacity="1.00" d=" M 230.42 53.92 C 234.66 61.35 236.77 70.71 234.23 79.04 C 228.75 71.88 230.52 62.29 230.42 53.92 Z" />
<path fill="#643415" opacity="1.00" d=" M 224.45 63.48 C 226.74 67.75 225.68 73.37 223.62 77.57 C 221.93 78.62 221.14 76.28 221.14 74.96 C 220.84 70.85 222.91 67.14 224.45 63.48 Z" />
<path fill="#643415" opacity="1.00" d=" M 215.64 79.90 C 215.41 75.47 216.84 71.08 219.53 67.58 C 219.88 71.63 220.39 78.26 215.64 79.90 Z" />
<path fill="#643415" opacity="1.00" d=" M 242.10 70.15 C 244.88 72.61 247.43 75.43 248.71 78.99 C 244.38 78.48 243.23 73.62 242.10 70.15 Z" />
<path fill="#643415" opacity="1.00" d=" M 224.85 89.80 C 227.60 87.04 232.73 86.59 235.57 89.42 C 238.10 92.68 238.37 97.03 238.40 101.01 C 238.27 104.63 238.44 108.62 236.12 111.66 C 234.82 107.62 237.84 101.21 232.90 99.08 C 232.53 99.18 231.80 99.37 231.44 99.47 C 228.40 102.94 228.12 108.24 224.59 111.40 C 223.67 111.59 222.75 111.76 221.83 111.89 C 218.57 104.81 218.92 95.38 224.85 89.80 Z" />
</g>
<g id="#faa719ff">
<path fill="#faa719" opacity="1.00" d=" M 8.21 100.39 C 14.95 98.35 22.08 99.76 28.98 99.75 C 33.20 100.05 37.59 98.94 41.66 100.41 C 43.65 101.23 43.48 103.55 43.69 105.32 C 38.47 107.43 32.79 105.67 27.34 106.19 C 27.31 111.45 27.93 116.69 27.89 121.96 C 27.95 129.34 27.22 136.69 27.36 144.07 C 27.28 146.01 27.76 148.64 25.58 149.65 C 24.29 150.07 22.03 149.94 22.00 148.11 C 21.79 134.16 24.57 119.81 20.97 106.11 C 15.80 104.47 10.03 107.31 5.11 104.37 C 6.03 103.01 6.32 100.80 8.21 100.39 Z" />
<path fill="#faa719" opacity="1.00" d=" M 48.44 100.51 C 49.14 100.31 50.54 99.93 51.24 99.73 C 52.86 102.15 52.73 105.14 53.08 107.92 C 53.48 112.56 53.85 117.20 54.37 121.83 C 56.84 121.74 59.38 121.25 61.82 121.87 C 64.02 122.98 65.79 124.74 67.66 126.33 C 67.61 132.72 67.73 139.13 67.16 145.50 C 66.92 147.76 64.35 147.98 62.72 148.78 C 61.71 146.98 60.13 145.23 60.37 143.02 C 60.83 138.09 61.46 133.16 61.56 128.19 C 59.50 127.35 56.88 127.51 55.36 129.27 C 53.34 135.02 54.22 141.22 53.46 147.18 C 52.88 147.50 51.73 148.14 51.16 148.46 C 50.01 147.72 48.86 146.97 47.72 146.22 C 47.99 135.50 49.15 124.78 48.47 114.05 C 48.31 109.53 47.14 104.96 48.44 100.51 Z" />
<path fill="#faa719" opacity="1.00" d=" M 114.88 104.89 C 119.04 99.27 127.71 97.92 133.62 101.36 C 136.48 102.80 137.68 106.19 137.30 109.24 C 133.33 110.70 132.16 104.19 128.22 105.39 C 124.70 106.33 120.14 106.57 118.27 110.23 C 113.66 117.57 111.72 126.48 112.40 135.08 C 112.49 138.69 115.72 140.86 118.51 142.50 C 121.22 144.06 124.98 144.59 127.67 142.73 C 131.14 140.75 133.07 136.60 137.31 135.97 C 138.06 137.73 139.14 139.91 137.57 141.60 C 133.82 146.24 128.19 149.97 122.01 149.71 C 113.24 149.89 105.85 141.56 106.09 132.98 C 106.13 123.08 107.83 112.38 114.88 104.89 Z" />
<path fill="#faa719" opacity="1.00" d=" M 318.37 103.03 C 318.37 101.02 321.14 100.89 322.38 99.99 C 324.23 107.09 323.12 114.49 323.37 121.72 C 327.94 122.84 332.65 122.42 337.30 122.32 C 337.58 117.88 337.93 113.44 337.74 108.99 C 337.70 106.33 337.25 103.33 339.18 101.16 C 340.53 100.86 342.41 101.43 342.26 103.11 C 343.35 113.69 342.05 124.33 342.61 134.93 C 342.59 138.63 343.55 142.30 343.18 146.00 C 342.04 147.05 340.58 147.63 339.06 147.07 C 337.94 145.62 337.47 143.80 337.47 142.00 C 337.32 137.43 337.12 132.87 336.64 128.33 C 331.95 128.51 327.33 127.51 322.66 127.26 C 322.00 134.39 322.33 142.11 318.67 148.52 C 317.58 148.64 316.49 148.72 315.40 148.75 C 315.33 146.10 315.33 143.43 315.81 140.81 C 318.52 128.42 318.46 115.65 318.37 103.03 Z" />
<path fill="#faa719" opacity="1.00" d=" M 242.00 112.93 C 243.22 111.84 245.00 112.49 246.47 112.36 C 246.71 114.05 247.96 116.00 246.48 117.45 C 244.83 118.44 242.89 117.79 241.11 117.78 C 241.30 116.17 240.58 114.14 242.00 112.93 Z" />
<path fill="#faa719" opacity="1.00" d=" M 222.62 118.79 C 223.60 117.47 224.70 115.54 226.68 116.39 C 227.84 117.74 227.72 119.79 228.28 121.45 C 230.43 121.67 232.58 121.97 234.71 122.42 C 234.65 123.73 234.59 125.05 234.51 126.36 C 232.48 126.75 230.45 127.14 228.43 127.51 C 227.66 134.51 229.24 141.93 226.70 148.61 C 225.74 148.41 223.83 148.00 222.88 147.80 C 222.95 141.27 223.25 134.75 223.35 128.22 C 221.38 127.74 219.20 127.68 217.47 126.50 C 216.31 123.07 220.95 122.16 223.39 122.07 C 223.20 121.25 222.81 119.61 222.62 118.79 Z" />
<path fill="#faa719" opacity="1.00" d=" M 376.21 118.73 C 377.17 117.14 378.63 116.16 380.50 115.99 C 380.90 117.81 381.29 119.63 381.66 121.45 C 384.37 121.69 388.80 121.13 388.71 125.09 C 387.26 127.33 384.20 126.89 381.94 127.58 C 381.33 134.54 382.49 141.74 380.49 148.51 C 379.48 148.37 377.47 148.09 376.46 147.94 C 376.49 141.34 376.76 134.74 376.90 128.14 C 375.23 127.84 373.56 127.53 371.90 127.23 C 371.52 126.68 370.75 125.60 370.36 125.06 C 371.99 122.97 374.42 122.21 376.97 122.06 C 376.73 120.94 376.47 119.84 376.21 118.73 Z" />
<path fill="#faa719" opacity="1.00" d=" M 144.74 125.18 C 145.54 124.35 146.34 123.52 147.15 122.70 C 148.01 123.30 148.87 123.90 149.74 124.50 C 151.21 123.88 152.67 123.26 154.14 122.64 C 156.18 124.01 159.41 124.98 159.48 127.92 C 159.40 129.56 160.20 132.30 157.98 132.75 C 155.82 133.76 154.11 131.82 152.93 130.31 C 152.61 130.39 151.95 130.55 151.62 130.63 C 149.90 136.12 150.86 141.97 149.69 147.56 C 148.96 147.74 147.51 148.12 146.79 148.31 C 145.85 147.76 144.92 147.21 143.98 146.66 C 141.65 139.52 145.55 132.41 144.74 125.18 Z" />
<path fill="#faa719" opacity="1.00" d=" M 240.41 148.19 C 241.12 139.54 239.85 130.28 243.57 122.18 C 244.50 122.37 246.36 122.75 247.29 122.93 C 247.41 125.30 247.39 127.68 246.97 130.02 C 245.86 136.18 246.56 142.51 245.37 148.67 C 243.72 148.52 242.06 148.36 240.41 148.19 Z" />
<path fill="#faa719" opacity="1.00" d=" M 279.82 124.87 C 280.85 124.33 281.89 123.80 282.94 123.29 C 285.87 125.74 289.64 124.10 293.01 124.80 C 297.06 126.29 299.01 130.88 298.87 134.97 C 298.73 139.60 298.78 144.53 296.37 148.66 C 295.09 148.23 293.82 147.79 292.55 147.35 C 290.18 141.76 294.07 135.79 291.91 130.03 C 289.69 130.33 286.62 129.96 285.86 132.71 C 284.51 137.82 285.82 143.24 284.44 148.38 C 283.02 148.37 281.60 148.35 280.18 148.33 C 279.44 146.63 278.33 144.98 278.35 143.05 C 278.25 136.96 279.68 130.96 279.82 124.87 Z" />
<path fill="#faa719" opacity="1.00" d=" M 71.93 131.78 C 72.24 127.99 74.85 124.04 78.98 123.94 C 84.15 122.66 89.80 127.95 89.24 133.09 C 87.52 137.12 82.27 136.91 78.61 137.19 C 78.59 138.57 78.57 139.95 78.56 141.33 C 81.14 143.23 83.52 141.11 85.79 139.89 C 87.09 140.12 88.37 140.38 89.65 140.69 C 89.49 143.05 88.90 145.35 87.99 147.53 C 83.69 148.50 78.58 149.28 75.01 146.01 C 70.61 142.70 71.38 136.58 71.93 131.78 Z" />
<path fill="#faa719" opacity="1.00" d=" M 164.50 130.00 C 165.01 124.74 171.37 122.68 175.73 124.29 C 179.05 126.29 183.05 130.53 180.43 134.55 C 177.87 137.11 173.90 136.94 170.55 137.20 C 170.53 138.56 170.52 139.92 170.51 141.28 C 173.10 143.29 175.72 141.29 177.79 139.61 C 179.02 140.00 180.25 140.37 181.48 140.75 C 181.77 143.18 180.87 145.45 179.84 147.60 C 175.76 148.46 171.05 149.22 167.53 146.37 C 162.36 142.68 163.58 135.41 164.50 130.00 Z" />
<path fill="#faa719" opacity="1.00" d=" M 187.39 128.38 C 189.33 125.08 193.29 123.44 196.99 123.36 C 200.83 124.34 204.49 126.23 208.59 125.67 C 211.25 132.96 210.77 141.10 214.33 148.14 C 213.11 149.32 211.89 150.83 209.97 150.35 C 207.35 150.52 206.23 147.82 204.95 146.06 C 202.71 147.15 200.55 148.74 197.97 148.76 C 192.23 149.14 186.50 144.70 185.63 138.97 C 185.00 135.39 185.50 131.51 187.39 128.38 M 192.99 132.00 C 191.01 135.90 192.57 143.02 198.11 142.32 C 203.21 139.63 202.88 131.37 198.06 128.43 C 196.31 129.53 194.36 130.41 192.99 132.00 Z" />
<path fill="#faa719" opacity="1.00" d=" M 252.11 134.97 C 252.17 130.22 256.29 127.16 259.01 123.76 C 269.99 122.34 276.90 136.45 272.59 145.45 C 270.17 149.47 264.87 149.01 260.86 148.57 C 254.88 147.32 251.45 140.75 252.11 134.97 M 258.75 132.06 C 257.50 135.09 257.23 138.86 259.52 141.48 C 261.23 143.42 264.01 143.25 266.34 143.63 C 268.55 139.02 269.08 131.14 263.08 129.28 C 261.65 130.24 260.21 131.16 258.75 132.06 Z" />
<path fill="#faa719" opacity="1.00" d=" M 350.33 124.05 C 351.46 124.16 352.60 124.32 353.74 124.52 C 355.30 130.21 352.03 136.30 354.11 141.89 C 355.10 144.58 358.73 143.33 359.04 140.90 C 361.11 135.17 359.20 128.55 362.41 123.23 C 363.69 123.73 364.97 124.23 366.26 124.73 C 365.87 132.76 367.49 140.67 367.90 148.66 C 365.60 149.52 363.15 149.53 361.31 147.73 C 357.29 148.31 351.13 149.69 349.24 144.81 C 347.27 138.06 348.12 130.65 350.33 124.05 Z" />
</g>
</svg>
