<?xml version="1.0" encoding="UTF-8" ?>
<!DOCTYPE svg PUBLIC "-//W3C//DTD SVG 1.1//EN" "http://www.w3.org/Graphics/SVG/1.1/DTD/svg11.dtd">
<svg width="66pt" height="77pt" viewBox="0 0 66 77" version="1.1" xmlns="http://www.w3.org/2000/svg">
<g id="#ffffffff">
</g>
<g id="#f18100ff">
<path fill="#f18100" opacity="1.00" d=" M 27.63 7.60 C 29.03 7.11 30.87 6.85 32.05 7.96 C 35.79 10.97 38.06 15.45 39.15 20.05 C 39.66 21.53 38.68 22.88 38.19 24.20 C 35.57 24.18 33.02 24.74 30.67 25.92 C 29.82 31.97 31.81 38.50 36.70 42.35 C 38.26 43.43 40.02 45.08 42.09 44.38 C 44.91 43.55 46.25 40.02 49.11 39.62 C 53.55 41.96 56.15 46.62 57.79 51.19 C 58.43 53.12 59.04 55.80 56.92 57.04 C 54.44 58.34 51.65 58.85 48.97 59.60 C 48.29 61.34 47.28 62.92 46.19 64.43 C 41.72 66.56 37.12 63.40 32.50 64.49 C 33.10 67.06 34.10 69.73 33.30 72.37 C 29.99 72.99 27.99 69.70 25.54 68.09 C 26.05 70.35 26.57 72.61 26.89 74.90 C 24.02 75.07 21.55 73.70 19.33 72.03 C 19.86 71.52 20.39 71.01 20.92 70.49 C 22.14 71.52 23.40 72.49 24.81 73.25 C 24.25 70.98 23.67 68.71 23.45 66.37 C 26.87 65.88 28.98 68.98 31.75 70.37 C 31.16 67.74 30.25 64.98 31.69 62.43 C 36.59 61.32 41.50 64.90 46.13 62.28 C 46.32 61.17 46.51 60.07 46.69 58.97 C 39.31 57.94 32.83 53.53 27.56 48.46 C 19.68 40.42 17.78 28.19 20.33 17.54 C 21.36 13.46 23.94 9.70 27.63 7.60 M 28.40 8.23 C 29.22 13.95 31.99 20.10 37.43 22.73 C 37.25 16.92 34.18 10.31 28.40 8.23 M 21.33 28.91 C 21.41 38.12 26.74 46.77 34.36 51.75 C 39.85 55.51 46.56 58.62 53.35 56.90 C 50.34 53.05 47.24 49.12 46.10 44.25 C 44.23 45.18 42.40 47.06 40.12 46.46 C 32.02 43.18 26.52 33.39 29.46 24.87 C 28.47 23.97 27.48 23.06 26.49 22.16 C 26.48 21.58 26.46 20.41 26.46 19.83 C 27.87 20.85 29.18 22.03 30.41 23.28 C 31.13 23.26 32.57 23.22 33.29 23.20 C 30.80 19.19 27.96 15.31 26.85 10.63 C 21.29 14.81 21.09 22.58 21.33 28.91 M 47.48 41.28 C 48.33 47.02 51.09 53.02 56.43 55.83 C 56.17 50.08 53.33 43.27 47.48 41.28 Z" />
</g>
<g id="#fbfff6ff">
</g>
<g id="#fefeffff">
</g>
<g id="#fbfdfcff">
</g>
</svg>
